<?xml version="1.0" encoding="UTF-8"?>
<svg xmlns="http://www.w3.org/2000/svg" id="Layer_1" data-name="Layer 1" viewBox="0 0 24 24">
  <g>
    <path d="M7.356,5.377c.276,0,.5-.224,.5-.5,0-1.58,1.283-2.865,2.859-2.865,1.098,0,2.082,.613,2.567,1.601,.121,.248,.42,.349,.669,.228,.248-.122,.35-.422,.228-.669-.654-1.332-1.982-2.159-3.464-2.159-2.128,0-3.859,1.734-3.859,3.865,0,.276,.224,.5,.5,.5Z"/>
    <path d="M22.772,12.311c-.042-.176-.176-.316-.351-.365-.018-.005-.371-.104-.879-.171-.469-1.24-1.29-1.999-2.109-2.558,.683-1.579-.533-3.325-.59-3.405-.062-.086-.147-.15-.247-.184-.027-.01-2.71-.882-4.81,1.842-.498-.038-1.024-.059-1.569-.062-5.408,.023-7.937,1.768-9.021,3.87-.736-.441-1.198-1.241-1.198-2.116,0-.943,.549-1.816,1.398-2.224,.249-.119,.354-.418,.234-.667-.12-.249-.417-.355-.667-.234-1.194,.573-1.966,1.8-1.966,3.125,0,1.28,.703,2.446,1.813,3.048-.22,.689-.316,1.394-.333,2.073,.061,2.262,.928,3.989,2.58,5.139,.131,2.92,1.543,3.556,2.732,3.567,.875-.008,1.979-.364,2.47-1.944,.614,.056,1.271,.085,1.96,.087,.308,0,.611-.007,.909-.02,.504,1.525,1.591,1.869,2.456,1.876,1.068-.01,2.377-.534,2.671-2.92,1.315-.581,2.669-1.445,3.308-3.233,.495-.067,.839-.163,.856-.168,.178-.05,.313-.194,.353-.375,.01-.042,.226-1.04,.226-2.023,0-.996-.219-1.92-.228-1.958Zm-.917,3.461c-.18,.037-.429,.079-.712,.104-.205,.019-.378,.161-.436,.358-.476,1.635-1.587,2.393-3.11,3.028-.173,.072-.291,.234-.306,.42-.167,2.031-1.004,2.298-1.706,2.305-.58-.005-1.286-.181-1.594-1.509-.053-.228-.256-.387-.487-.387-.01,0-.858,.037-1.283,.039-.814-.003-1.581-.045-2.279-.125-.254-.027-.493,.141-.546,.394-.294,1.398-1.017,1.583-1.605,1.588-.462-.004-1.69-.015-1.74-2.849-.003-.167-.09-.322-.231-.413-1.521-.971-2.286-2.434-2.34-4.444,.101-3.874,3.042-5.851,8.738-5.875,.616,.003,1.208,.03,1.76,.082,.177,.016,.352-.063,.454-.21,1.437-2.036,3.167-1.857,3.688-1.745,.25,.417,.884,1.649,.241,2.559-.08,.113-.109,.253-.082,.388,.027,.135,.109,.252,.227,.325,1.224,.759,1.857,1.506,2.189,2.578,.06,.194,.231,.333,.434,.35,.292,.026,.548,.069,.731,.106,.059,.324,.14,.87,.14,1.428,0,.566-.084,1.156-.145,1.502Z"/>
  </g>
  <circle cx="17.12" cy="13.283" r=".75"/>
</svg>
